<svg width="82" height="33" viewBox="0 0 82 33" fill="none" xmlns="http://www.w3.org/2000/svg">
<path d="M20.0635 18.5913L20.6274 18.7109L18.645 25H0.700684V24.3677H1.57227C2.55208 24.3677 3.25277 24.0487 3.67432 23.4106C3.91357 23.0461 4.0332 22.203 4.0332 20.8813V5.92773C4.0332 4.48079 3.8737 3.57503 3.55469 3.21045C3.11035 2.70915 2.44954 2.4585 1.57227 2.4585H0.700684V1.82617H11.1938V2.4585C9.96338 2.4471 9.09749 2.56104 8.59619 2.80029C8.10628 3.03955 7.77018 3.34147 7.58789 3.70605C7.4056 4.07064 7.31445 4.94222 7.31445 6.3208V20.8813C7.31445 21.827 7.4056 22.4764 7.58789 22.8296C7.72461 23.0688 7.93538 23.2454 8.22021 23.3594C8.50505 23.4733 9.39372 23.5303 10.8862 23.5303H12.5781C14.3555 23.5303 15.603 23.3993 16.3208 23.1372C17.0386 22.8752 17.6937 22.4137 18.2861 21.7529C18.8786 21.0807 19.471 20.0269 20.0635 18.5913ZM25.6621 15.2417C25.6507 17.5659 26.2146 19.3888 27.354 20.7104C28.4933 22.0321 29.832 22.6929 31.3701 22.6929C32.3955 22.6929 33.2841 22.4137 34.0361 21.8555C34.7994 21.2858 35.4375 20.3174 35.9502 18.9502L36.4799 19.292C36.2407 20.8529 35.5457 22.277 34.395 23.5645C33.2443 24.8405 31.803 25.4785 30.0713 25.4785C28.1914 25.4785 26.5792 24.7493 25.2348 23.291C23.9018 21.8213 23.2353 19.8503 23.2353 17.3779C23.2353 14.7005 23.9189 12.6156 25.2861 11.123C26.6647 9.61914 28.3907 8.86719 30.4643 8.86719C32.2189 8.86719 33.6601 9.44824 34.788 10.6104C35.916 11.7611 36.4799 13.3049 36.4799 15.2417H25.6621ZM25.6621 14.2505H32.9082C32.8512 13.2479 32.7316 12.5415 32.5493 12.1313C32.2644 11.4933 31.8372 10.992 31.2675 10.6274C30.7093 10.2629 30.1225 10.0806 29.5073 10.0806C28.5616 10.0806 27.7129 10.4508 26.9609 11.1914C26.2203 11.9206 25.7874 12.9403 25.6621 14.2505ZM43.309 19.292C42.352 18.8249 41.6171 18.1755 41.1044 17.3438C40.5917 16.5007 40.3354 15.5721 40.3354 14.5581C40.3354 13.0086 40.9164 11.6756 42.0785 10.5591C43.252 9.44255 44.7502 8.88428 46.5732 8.88428C48.0657 8.88428 49.3588 9.24886 50.4526 9.97803H53.768C54.2579 9.97803 54.5427 9.99512 54.6225 10.0293C54.7022 10.0521 54.7592 10.0977 54.7934 10.166C54.8617 10.2686 54.8959 10.4508 54.8959 10.7129C54.8959 11.0091 54.8674 11.2142 54.8105 11.3281C54.7763 11.3851 54.7136 11.4307 54.6225 11.4648C54.5427 11.499 54.2579 11.5161 53.768 11.5161H51.7343C52.3723 12.3364 52.6913 13.3846 52.6913 14.6606C52.6913 16.119 52.1331 17.3665 51.0165 18.4033C49.9 19.4401 48.4018 19.9585 46.5219 19.9585C45.7472 19.9585 44.9553 19.8446 44.1464 19.6167C43.6451 20.0496 43.3033 20.4313 43.121 20.7617C42.9501 21.0807 42.8647 21.3542 42.8647 21.582C42.8647 21.7757 42.9558 21.9637 43.1381 22.146C43.3318 22.3283 43.7021 22.4593 44.2489 22.5391C44.568 22.5846 45.3655 22.6245 46.6415 22.6587C48.9885 22.7157 50.5095 22.7954 51.2045 22.8979C52.2641 23.0461 53.1072 23.4391 53.7338 24.0771C54.3718 24.7152 54.6908 25.5013 54.6908 26.4355C54.6908 27.723 54.087 28.9307 52.8793 30.0586C51.102 31.722 48.7835 32.5537 45.9238 32.5537C43.7249 32.5537 41.8678 32.0581 40.3525 31.0669C39.498 30.4972 39.0707 29.9048 39.0707 29.2896C39.0707 29.0161 39.1334 28.7427 39.2587 28.4692C39.4524 28.0477 39.8512 27.4609 40.455 26.709C40.5348 26.6064 41.1158 25.9912 42.1982 24.8633C41.6057 24.5101 41.1842 24.1968 40.9335 23.9233C40.6943 23.6385 40.5746 23.3195 40.5746 22.9663C40.5746 22.5675 40.7341 22.1004 41.0531 21.5649C41.3836 21.0295 42.1355 20.2718 43.309 19.292ZM46.2826 9.70459C45.4395 9.70459 44.7332 10.0407 44.1635 10.7129C43.5938 11.3851 43.309 12.4162 43.309 13.8062C43.309 15.6063 43.6964 17.002 44.4711 17.9932C45.0636 18.7451 45.8155 19.1211 46.727 19.1211C47.5929 19.1211 48.3049 18.7964 48.8632 18.147C49.4215 17.4976 49.7006 16.4779 49.7006 15.0879C49.7006 13.2764 49.3075 11.8579 48.5214 10.8325C47.9404 10.0806 47.1941 9.70459 46.2826 9.70459ZM43.1381 25C42.6026 25.5811 42.1982 26.1222 41.9247 26.6235C41.6513 27.1248 41.5146 27.5863 41.5146 28.0078C41.5146 28.5547 41.845 29.0332 42.5058 29.4434C43.6451 30.1497 45.2914 30.5029 47.4447 30.5029C49.4955 30.5029 51.0051 30.1383 51.9736 29.4092C52.9534 28.6914 53.4433 27.9224 53.4433 27.1021C53.4433 26.5096 53.1528 26.0881 52.5717 25.8374C51.9793 25.5868 50.8058 25.4386 49.0512 25.3931C46.4877 25.3247 44.5167 25.1937 43.1381 25ZM66.0316 22.7441C64.4252 23.986 63.4169 24.7038 63.0067 24.8975C62.3915 25.1823 61.7364 25.3247 61.0414 25.3247C59.959 25.3247 59.0647 24.9544 58.3583 24.2139C57.6633 23.4733 57.3158 22.4992 57.3158 21.2915C57.3158 20.5282 57.4867 19.8674 57.8285 19.3091C58.2956 18.5343 59.1045 17.8052 60.2553 17.1216C61.4174 16.438 63.3428 15.6063 66.0316 14.6265V14.0112C66.0316 12.4504 65.781 11.3794 65.2797 10.7983C64.7898 10.2173 64.072 9.92676 63.1263 9.92676C62.4086 9.92676 61.8389 10.1204 61.4174 10.5078C60.9844 10.8952 60.7679 11.3395 60.7679 11.8408L60.8021 12.832C60.8021 13.3561 60.6654 13.7606 60.392 14.0454C60.1299 14.3302 59.7824 14.4727 59.3495 14.4727C58.9279 14.4727 58.5804 14.3245 58.307 14.0283C58.045 13.7321 57.9139 13.3276 57.9139 12.8149C57.9139 11.8351 58.4152 10.9351 59.4179 10.1147C60.4205 9.29443 61.8275 8.88428 63.639 8.88428C65.029 8.88428 66.1683 9.11784 67.057 9.58496C67.7292 9.93815 68.2248 10.4907 68.5438 11.2427C68.7489 11.7326 68.8514 12.7352 68.8514 14.2505V19.5654C68.8514 21.0579 68.8799 21.9751 68.9369 22.3169C68.9939 22.6473 69.085 22.8695 69.2103 22.9834C69.347 23.0973 69.5009 23.1543 69.6718 23.1543C69.854 23.1543 70.0136 23.1144 70.1503 23.0347C70.3895 22.8866 70.851 22.4707 71.5345 21.7871V22.7441C70.2585 24.4531 69.0394 25.3076 67.8773 25.3076C67.3191 25.3076 66.8747 25.1139 66.5443 24.7266C66.2139 24.3392 66.043 23.6784 66.0316 22.7441ZM66.0316 21.6333V15.6689C64.3112 16.3525 63.2004 16.8368 62.6991 17.1216C61.799 17.6229 61.1553 18.147 60.7679 18.6938C60.3806 19.2407 60.1869 19.8389 60.1869 20.4883C60.1869 21.3086 60.4318 21.9922 60.9218 22.5391C61.4117 23.0745 61.9756 23.3423 62.6137 23.3423C63.4795 23.3423 64.6189 22.7726 66.0316 21.6333ZM78.6371 0.698242V21.4624C78.6371 22.4422 78.7054 23.0916 78.8421 23.4106C78.9902 23.7297 79.2124 23.9746 79.5086 24.1455C79.8049 24.305 80.3574 24.3848 81.1664 24.3848V25H73.493V24.3848C74.2108 24.3848 74.7007 24.3107 74.9627 24.1626C75.2248 24.0145 75.4299 23.7695 75.578 23.4277C75.7261 23.0859 75.8001 22.4308 75.8001 21.4624V7.24365C75.8001 5.4777 75.7603 4.39535 75.6805 3.99658C75.6008 3.58643 75.4697 3.30729 75.2874 3.15918C75.1165 3.01107 74.8944 2.93701 74.6209 2.93701C74.3247 2.93701 73.9487 3.02816 73.493 3.21045L73.2025 2.6123L77.868 0.698242H78.6371Z" fill="#0E2D22"/>
</svg>
